<svg xmlns:dc="http://purl.org/dc/elements/1.1/" xmlns:cc="http://creativecommons.org/ns#" xmlns:rdf="http://www.w3.org/1999/02/22-rdf-syntax-ns#" xmlns:svg="http://www.w3.org/2000/svg" xmlns="http://www.w3.org/2000/svg" xmlns:sodipodi="http://sodipodi.sourceforge.net/DTD/sodipodi-0.dtd" xmlns:inkscape="http://www.inkscape.org/namespaces/inkscape" version="1.1" x="0px" y="0px" viewBox="0 0 100 125"><g transform="translate(0,-952.36218)"><path d="m 9.9999975,971.36215 0,2 0,43.99995 0,2.0001 1.9999995,0 76.000005,0 2,0 0,-2.0001 0,-43.99995 0,-2 -2,0 -76.000005,0 z m 3.9999995,4 72.000005,0 0,39.99995 -72.000005,0 z m 27.84375,5.9375 c -0.98406,0.0781 -1.82671,1.03697 -1.8125,2.0625 l 0,23.99995 c 0.0128,1.4149 1.756191,2.4535 2.9375,1.75 l 20,-11.99995 c 1.18583,-0.7119 1.18583,-2.81935 0,-3.53125 l -20,-12 c -0.33673,-0.20758 -0.73426,-0.30696 -1.125,-0.28125 z m 2.125,5.59375 14.09375,8.46875 -14.09375,8.43745 z m -18.96875,36.4688 c -2.04569,0 -3.78823,1.2405 -4.5625,3 l -4.4375,0 c -1.10457,0 -2,0.8954 -2,2 0,1.1046 0.89543,2 2,2 l 4.4375,0 c 0.77427,1.7595 2.51681,3 4.5625,3 2.04569,0 3.78823,-1.2405 4.5625,-3 l 54.437505,0 c 1.10457,0 2,-0.8954 2,-2 0,-1.1046 -0.89543,-2 -2,-2 l -54.437505,0 c -0.77427,-1.7595 -2.51681,-3 -4.5625,-3 z" style="text-indent:0;text-transform:none;direction:ltr;block-progression:tb;baseline-shift:baseline;color:#000000;enable-background:accumulate;" fill="#000000" fill-opacity="1" stroke="none" marker="none" visibility="visible" display="inline" overflow="visible"/></g><text x="0" y="115" fill="#000000" font-size="5px" font-weight="bold" font-family="'Helvetica Neue', Helvetica, Arial-Unicode, Arial, Sans-serif">Created by Alfa Design</text><text x="0" y="120" fill="#000000" font-size="5px" font-weight="bold" font-family="'Helvetica Neue', Helvetica, Arial-Unicode, Arial, Sans-serif">from the Noun Project</text></svg>