<svg xmlns="http://www.w3.org/2000/svg" xmlns:xlink="http://www.w3.org/1999/xlink" version="1.1" x="0px" y="0px" viewBox="0 0 66 82.5" enable-background="new 0 0 66 66" xml:space="preserve"><g><g><path d="M64.4,40.6l-4.6-1.9c-0.4-1.2-0.8-2.3-1.4-3.3l1.9-4.6c0.1-0.4,0.1-0.8-0.2-1.1L57.3,27c-0.3-0.3-0.7-0.4-1.1-0.2    l-4.6,1.9c-1-0.6-2.1-1-3.3-1.4l-1.9-4.6c-0.2-0.4-0.5-0.6-0.9-0.6h-3.9c-0.4,0-0.8,0.3-0.9,0.6l-1.9,4.6    c-1.2,0.3-2.3,0.8-3.3,1.4l-4.6-1.9c-0.4-0.1-0.8-0.1-1.1,0.2L27,29.7c-0.3,0.3-0.4,0.7-0.2,1.1l1.9,4.6c-0.6,1-1,2.1-1.4,3.3    l-4.6,1.9c-0.4,0.1-0.6,0.5-0.6,0.9v3.9c0,0.4,0.2,0.8,0.6,0.9l4.6,1.9c0.3,1.1,0.8,2.3,1.4,3.3l-1.9,4.6    c-0.1,0.4-0.1,0.8,0.2,1.1l2.8,2.8c0.3,0.3,0.7,0.4,1.1,0.2l4.6-1.9c1,0.6,2.1,1,3.3,1.4l1.9,4.6c0.2,0.4,0.5,0.6,0.9,0.6h3.9    c0.4,0,0.8-0.2,0.9-0.6l1.9-4.6c1.2-0.3,2.2-0.8,3.3-1.4l4.6,1.9c0.4,0.1,0.8,0.1,1.1-0.2l2.8-2.8c0.3-0.3,0.4-0.7,0.2-1.1    l-1.9-4.6c0.6-1,1-2.1,1.4-3.3l4.6-1.9c0.4-0.2,0.6-0.5,0.6-0.9v-3.9C65,41.2,64.8,40.8,64.4,40.6z M50.3,43.5    c0,3.7-3,6.8-6.8,6.8c-3.7,0-6.8-3-6.8-6.8c0-3.8,3-6.8,6.8-6.8C47.3,36.7,50.3,39.8,50.3,43.5z"/></g><g><path d="M32.3,19.9l-2.7-2.4c0-0.8,0-1.6-0.1-2.5l2.4-2.6c0.3-0.3,0.3-0.7,0.2-1.1l-1.2-2.6C30.7,8.3,30.3,8,29.9,8l-3.6,0.2    c-0.6-0.6-1.2-1.2-1.8-1.6L24.4,3c0-0.4-0.3-0.8-0.7-0.9l-2.8-1c-0.4-0.1-0.8,0-1.1,0.3L17.5,4c-0.8,0-1.6,0-2.4,0.1l-2.6-2.4    c-0.3-0.3-0.7-0.3-1.1-0.2L8.6,2.7C8.2,2.9,8,3.3,8,3.7l0.2,3.6C7.6,7.9,7,8.5,6.6,9.1L3,9.3c-0.4,0-0.8,0.3-0.9,0.7l-1,2.8    c-0.1,0.4,0,0.8,0.3,1.1L4,16.2c0,0.8,0,1.6,0.1,2.5l-2.4,2.6c-0.3,0.3-0.3,0.7-0.2,1.1L2.7,25c0.2,0.4,0.5,0.6,1,0.6l3.6-0.2    c0.6,0.6,1.2,1.2,1.8,1.6l0.2,3.6c0,0.4,0.3,0.8,0.7,0.9l2.8,1c0.1,0,0.2,0.1,0.3,0.1c0.3,0,0.5-0.1,0.7-0.3l2.4-2.7    c0.8,0,1.6,0,2.4-0.1l2.7,2.4c0.3,0.3,0.7,0.3,1.1,0.2l2.6-1.2c0.4-0.2,0.6-0.5,0.6-0.9l-0.2-3.6c0.6-0.6,1.2-1.2,1.6-1.8l3.6-0.1    c0.4,0,0.8-0.3,0.9-0.7l1-2.8C32.7,20.6,32.6,20.2,32.3,19.9z M21.6,16.8c0,2.6-2.1,4.8-4.8,4.8c-2.6,0-4.8-2.1-4.8-4.8    s2.1-4.8,4.8-4.8C19.5,12,21.6,14.2,21.6,16.8z"/></g><g><path d="M64.7,14.2l-1.8-1.6c0-0.5,0-1-0.1-1.5l1.6-1.8c0.3-0.3,0.3-0.7,0.2-1.1l-0.9-1.8c-0.2-0.4-0.5-0.6-1-0.6L60.5,6    c-0.3-0.4-0.7-0.7-1.1-1l-0.1-2.4c0-0.4-0.3-0.8-0.7-0.9l-1.9-0.7c-0.4-0.1-0.8,0-1.1,0.3L54,3.1c-0.5,0-1,0-1.5,0.1l-1.7-1.6    c-0.3-0.3-0.7-0.3-1.1-0.2l-1.8,0.9c-0.4,0.2-0.6,0.5-0.6,1l0.1,2.4c-0.4,0.3-0.7,0.7-1,1.1L44,6.7c-0.4,0-0.8,0.3-0.9,0.7    l-0.7,1.9c-0.1,0.4,0,0.8,0.3,1.1l1.8,1.6c0,0.5,0,1,0.1,1.5l-1.6,1.7c-0.3,0.3-0.3,0.7-0.2,1.1l0.9,1.8c0.2,0.4,0.6,0.6,1,0.6    l2.4-0.1c0.3,0.4,0.7,0.7,1.1,1l0.1,2.4c0,0.4,0.3,0.8,0.7,0.9l1.9,0.7c0.1,0,0.2,0.1,0.3,0.1c0.3,0,0.5-0.1,0.7-0.3l1.6-1.8    c0.5,0,1,0,1.5-0.1l1.8,1.6c0.3,0.3,0.7,0.3,1.1,0.2l1.8-0.9c0.4-0.2,0.6-0.6,0.6-1L60,19.1c0.4-0.3,0.7-0.7,1-1.1l2.4-0.1    c0.4,0,0.8-0.3,0.9-0.7l0.7-1.9C65.1,14.9,65,14.5,64.7,14.2z M56.7,12.3c0,1.7-1.4,3-3,3c-1.7,0-3-1.4-3-3s1.4-3,3-3    C55.4,9.3,56.7,10.6,56.7,12.3z"/></g></g><text x="0" y="81" fill="#000000" font-size="5px" font-weight="bold" font-family="'Helvetica Neue', Helvetica, Arial-Unicode, Arial, Sans-serif">Created by ProSymbols</text><text x="0" y="86" fill="#000000" font-size="5px" font-weight="bold" font-family="'Helvetica Neue', Helvetica, Arial-Unicode, Arial, Sans-serif">from the Noun Project</text></svg>