<svg xmlns="http://www.w3.org/2000/svg" xmlns:xlink="http://www.w3.org/1999/xlink" version="1.1" x="0px" y="0px" viewBox="0 0 66 82.5" enable-background="new 0 0 66 66" xml:space="preserve"><g><g><g><path d="M60.4,22.9c0,0-0.1,0-0.1,0l-9.9-1.4c-0.7-0.1-1.1-0.9-0.7-1.5l5.4-8.4c0.5-0.8,1.8-0.5,1.8,0.5l0.4,5.4l3.8,3.8     C61.7,21.8,61.2,22.9,60.4,22.9z"/></g><g><path d="M54.2,10.4l-9.7,2.5c-0.7,0.2-1.4-0.5-1.2-1.1L45,1.8c0.2-1,1.5-1.1,1.9-0.3l2.4,4.8l5,2.1C55.2,8.8,55.1,10.1,54.2,10.4     z"/></g></g><g><g><path d="M43.9,64.9c-0.4,0.2-1.1,0.1-1.3-0.4l-7.2-14c0.6-0.3,1.2-0.6,1.7-1l7.3,14C44.6,64,44.4,64.6,43.9,64.9z"/></g></g><g><g><path d="M16.1,50.5l-7.2,14c-0.3,0.5-0.9,0.7-1.3,0.4C7,64.6,6.8,64,7.1,63.5l7.3-14C14.9,49.9,15.5,50.2,16.1,50.5z"/></g></g><g><g><path d="M28.7,22.1v2l1.4-1.4C29.6,22.5,29.2,22.3,28.7,22.1z M16.1,28.7h5.6c0.3-0.4,0.6-0.7,1-1v-5.6     C19.6,23.1,17.1,25.6,16.1,28.7z M21.7,34.7h-5.6c1,3.1,3.5,5.6,6.6,6.6v-5.6C22.3,35.5,22,35.1,21.7,34.7z M29.7,34.7     c-0.3,0.4-0.6,0.7-1,1v5.6c3.1-1,5.6-3.5,6.6-6.6H29.7z"/></g><g><path d="M28.7,12.9v7.2c1,0.3,1.9,0.6,2.8,1.1l4.9-5.3C34.1,14.4,31.5,13.3,28.7,12.9z M6.9,28.7H14c1.1-4.2,4.4-7.6,8.7-8.7     v-7.2C14.6,14.2,8.2,20.6,6.9,28.7z M40.7,20l-2.5,2.7l3.4-1.5C41.3,20.8,41.1,20.4,40.7,20z M14,34.7H6.9     c1.3,8.1,7.7,14.6,15.9,15.9v-7.2C18.5,42.3,15.1,39,14,34.7z M37.4,34.7c-1.1,4.2-4.4,7.6-8.7,8.7v7.2     c8.1-1.3,14.6-7.7,15.8-15.9H37.4z M44.1,26.6l-4.6,2.1h5C44.4,28,44.3,27.3,44.1,26.6z"/></g></g><g><path d="M46.8,31.7c0,0.6-0.4,1-1,1H29.7c-0.5,0-1-0.4-1-1c0-0.1,0-0.2,0.1-0.3l-2.7,1.2c0,0,0,0,0,0c-0.4,0.2-0.9,0-1.1-0.2    c0,0,0,0,0,0c-0.1-0.1-0.2-0.2-0.2-0.3c0,0,0,0,0,0c-0.1-0.3-0.1-0.8,0.2-1.1l16.6-17.8c0.3,0.6,0.8,1.1,1.5,1.3L29.9,28.7l17.6-8    c0,0.6,0.3,1.3,0.8,1.8l-18,8.2h15.5C46.3,30.7,46.8,31.2,46.8,31.7z"/></g><g><path d="M24.7,35.8v16.1c0,0.6,0.4,1,1,1c0.6,0,1-0.4,1-1V35.8C26.7,34.4,24.7,34.4,24.7,35.8z"/></g><g><path d="M25.7,28.7c0.6,0,1-0.4,1-1V11.7c0-0.6-0.4-1-1-1c-0.6,0-1,0.4-1,1v16.1C24.7,28.3,25.2,28.7,25.7,28.7z"/></g><g><path d="M21.7,30.7H5.6c-0.6,0-1,0.4-1,1c0,0.6,0.4,1,1,1h16.1C23,32.7,23,30.7,21.7,30.7z"/></g></g><text x="0" y="81" fill="#000000" font-size="5px" font-weight="bold" font-family="'Helvetica Neue', Helvetica, Arial-Unicode, Arial, Sans-serif">Created by ProSymbols</text><text x="0" y="86" fill="#000000" font-size="5px" font-weight="bold" font-family="'Helvetica Neue', Helvetica, Arial-Unicode, Arial, Sans-serif">from the Noun Project</text></svg>