<svg xmlns="http://www.w3.org/2000/svg" xmlns:xlink="http://www.w3.org/1999/xlink" version="1.1" x="0px" y="0px" viewBox="0 0 128 160" style="enable-background:new 0 0 128 128;" xml:space="preserve"><g><path d="M126,54h-23.8852997c-1.1044006,0-2,0.8955002-2,2v9.0917969H78c-1.1044998,0-2,0.8955002-2,2V75H53   c-1.1044998,0-2,0.8955002-2,2v7H29c-1.1044998,0-2,0.8955002-2,2v8H2c-1.1044919,0-2,0.8955002-2,2s0.895508,2,2,2h27   c1.1044998,0,2-0.8955002,2-2v-8h22c1.1044998,0,2-0.8955002,2-2v-7h23c1.1044998,0,2-0.8955002,2-2v-7.9082031h22.1147003   c1.1044998,0,2-0.8955002,2-2V58H126c1.1044998,0,2-0.8955002,2-2S127.1044998,54,126,54z"/><g><path d="M23.1748009,42c-1.3599014,0-2.2075005,1.0556984-2.4741001,1.3535004c0,0-5.3462009,5.8086014-5.4033003,5.8711014    c-0.3394003,0.3691978-0.5718002,0.7279968-0.7544003,1.1977997l-2.4029007,6.2108994    c-0.4042997,1.044899,0.0957003,2.2280006,1.1182003,2.6415977c0.2406998,0.0962029,0.4878006,0.1421013,0.7323999,0.1421013    c0.7915001,0,1.5405998-0.4868011,1.8506002-1.2865982l2.3842993-6.1621017l1.4800014-1.6469994    c-0.0258999,0.1376991-0.0513,0.2738991-0.0771999,0.4110985c0,0-1.1606007,8.0064011-0.4643002,13.4340973    c0,0,0.597599,3.6641006,0.0663986,5.6314011c0,0-1.8456993,10.3377991-2.3848,12.6245041    c-0.221199,0.935997-0.1254997,2.077095,0.5200005,2.7938995C17.8563995,85.7617035,18.4717007,86,19.0776005,86    c1.0849991,0,2.1392002-0.7656021,2.3950996-1.9082031l3.1966991-13.5478973l0.3311005-1.219696    c0,0,0.3031998-1.7827072,0.0542011-2.7744064l-0.2920017-2.8041954c0,0-0.0824986-0.2456017,0.0937004-0.376503    c0.0328007-0.0243988,0.0718002-0.0340996,0.1114006-0.0340996c0.1240005,0,0.2567997,0.091301,0.2567997,0.091301    l4.4941998,1.9276962c0,0,0.4223003,0.5596008,0.3724995,1.6284027c0,0-0.0512981,5.0567017-0.0502987,5.097702    c0.0209999,1.1888962,0.0620003,2.6362,1.2388,3.2553024c0.9091988,0.478096,2.1996994,0.3310928,2.9110985-0.4536057    c0.4868011-0.5370941,0.7437019-1.2294998,0.7509995-1.9618988l0.403801-7.3506012    c0.081501-1.2953949,0.3164024-2.3754959-1.0751991-3.1625977c0,0-4.9682999-2.8916016-4.9873009-2.8993988    c-1.0767002-0.4546013-0.8778992-1.3652-0.8593998-2.3745003c0.0074005-0.4701996,0.0303001-0.9409027,0.0464001-1.4106026    c0.0049-0.1138,0.0171013-0.2182999,0.0142002-0.3316002c0,0-0.0088005-0.4051971,0.4941006-0.4051971    c0.0112,0,0.0235004,0,0.0356998,0c1.4422989,0,5.4354992,0.0312004,5.4549999,0.0312004    c1.9761009,0,2.2831993-3.9956017-0.5400009-3.9956017c-0.0195007,0-0.0375977,0-0.0570984,0    c0,0-5.0713005-0.1851006-5.0904007-0.1865005c-0.3066006-0.0165977-0.3159008-0.3056984-0.3255997-0.6176987    c-0.0386009-1.410202-0.125-2.5028992-0.4595013-3.8959999c-0.2821999-1.1796989-0.8129997-2.2798004-1.7919998-3.0156021    C25.4531002,42.7402,24.6201,42.2876015,23.7089996,42.0586014C23.5209999,42.0112,23.1748009,42,23.1748009,42z"/></g><g><ellipse cx="25" cy="36.4995003" rx="3" ry="3.5"/></g></g><text x="0" y="143" fill="#000000" font-size="5px" font-weight="bold" font-family="'Helvetica Neue', Helvetica, Arial-Unicode, Arial, Sans-serif">Created by priyanka</text><text x="0" y="148" fill="#000000" font-size="5px" font-weight="bold" font-family="'Helvetica Neue', Helvetica, Arial-Unicode, Arial, Sans-serif">from the Noun Project</text></svg>