<svg xmlns="http://www.w3.org/2000/svg" xmlns:xlink="http://www.w3.org/1999/xlink" version="1.1" x="0px" y="0px" viewBox="0 0 100 125" style="enable-background:new 0 0 100 100;" xml:space="preserve"><g><g><path d="M78.9,24.3L60.4,5.5H18.9v89h60v-6.8h11V52.6h-11V24.3z M58.4,7.7l18.5,18.6H58.4V7.7z M86.9,55.6v29.1H30.4V55.6H86.9z"/><path d="M35.2,73.9c0.4,0.4,1,0.8,1.6,0.9c0.6,0.2,1.2,0.3,1.9,0.3c0.5,0,1-0.1,1.5-0.2s0.9-0.3,1.2-0.5v-3h-1.6v1.8    c-0.3,0.1-0.6,0.1-1,0.1c-0.5,0-0.9-0.1-1.2-0.3s-0.7-0.4-0.9-0.7c-0.2-0.3-0.4-0.7-0.6-1.1s-0.2-0.9-0.2-1.5    c0-0.6,0.1-1.2,0.2-1.6c0.1-0.5,0.3-0.8,0.6-1.1c0.2-0.3,0.5-0.5,0.9-0.7c0.3-0.1,0.7-0.2,1.1-0.2c0.3,0,0.7,0,1,0.1v1.7h1.7v-3.1    c-0.3-0.1-0.6-0.2-1-0.3c-0.4-0.1-0.9-0.1-1.5-0.1c-0.6,0-1.2,0.1-1.7,0.3c-0.6,0.2-1.1,0.5-1.6,0.9c-0.5,0.4-0.9,1-1.2,1.7    s-0.5,1.6-0.5,2.6c0,1,0.1,1.8,0.4,2.5C34.4,72.9,34.7,73.5,35.2,73.9z"/><polygon points="51.6,70.7 49.8,70.7 49.8,73.1 46.8,73.1 46.8,64.4 44.7,64.4 44.7,74.9 51.6,74.9   "/><path d="M56.9,72.6h3.1l0.8,2.3H63l-3.4-10.5h-2.1l-3.4,10.5h2.1L56.9,72.6z M58.5,67.4h0.1l1.1,3.5h-2.2L58.5,67.4z"/><path d="M66.8,74.8c0.3,0.1,0.6,0.2,0.9,0.2c0.3,0.1,0.7,0.1,1.1,0.1c0.6,0,1.1-0.1,1.6-0.2c0.5-0.1,0.9-0.3,1.3-0.6    c0.4-0.3,0.6-0.6,0.8-1c0.2-0.4,0.3-0.9,0.3-1.4c0-0.6-0.1-1-0.4-1.4s-0.6-0.7-0.9-0.9s-0.8-0.5-1.2-0.6s-0.9-0.3-1.2-0.5    c-0.4-0.2-0.7-0.4-0.9-0.6c-0.3-0.2-0.4-0.5-0.4-0.8c0-0.3,0.1-0.6,0.4-0.8c0.3-0.2,0.7-0.3,1.1-0.3c0.2,0,0.5,0,0.8,0.1    c0.3,0,0.5,0.1,0.7,0.1c0,0,0.1,0,0.1,0v1.7h1.7v-3c-0.3-0.2-0.8-0.3-1.4-0.4s-1.2-0.2-1.8-0.2c-0.5,0-1,0.1-1.5,0.2    c-0.4,0.1-0.8,0.4-1.1,0.6s-0.6,0.6-0.7,1c-0.2,0.4-0.3,0.8-0.3,1.2c0,0.6,0.1,1.1,0.4,1.4c0.3,0.4,0.6,0.7,0.9,0.9    c0.4,0.2,0.8,0.4,1.2,0.6c0.4,0.2,0.9,0.3,1.2,0.5c0.4,0.2,0.7,0.3,0.9,0.6c0.3,0.2,0.4,0.5,0.4,0.8c0,0.4-0.2,0.7-0.5,0.9    s-0.7,0.3-1.3,0.3c-0.3,0-0.6,0-0.9-0.1c-0.3-0.1-0.5-0.1-0.8-0.2c0,0-0.1,0-0.1,0v-1.5h-1.7v2.8c0.1,0.1,0.3,0.2,0.5,0.3    C66.3,74.6,66.5,74.7,66.8,74.8z"/><path d="M77.3,74.8c0.3,0.1,0.6,0.2,0.9,0.2c0.3,0.1,0.7,0.1,1.1,0.1c0.6,0,1.1-0.1,1.6-0.2c0.5-0.1,0.9-0.3,1.3-0.6    c0.4-0.3,0.6-0.6,0.8-1c0.2-0.4,0.3-0.9,0.3-1.4c0-0.6-0.1-1-0.4-1.4s-0.6-0.7-0.9-0.9s-0.8-0.5-1.2-0.6s-0.9-0.3-1.2-0.5    c-0.4-0.2-0.7-0.4-0.9-0.6c-0.3-0.2-0.4-0.5-0.4-0.8c0-0.3,0.1-0.6,0.4-0.8c0.3-0.2,0.7-0.3,1.1-0.3c0.2,0,0.5,0,0.8,0.1    c0.3,0,0.5,0.1,0.7,0.1c0,0,0.1,0,0.1,0v1.7h1.7v-3c-0.3-0.2-0.8-0.3-1.4-0.4s-1.2-0.2-1.8-0.2c-0.5,0-1,0.1-1.5,0.2    c-0.4,0.1-0.8,0.4-1.1,0.6s-0.6,0.6-0.7,1c-0.2,0.4-0.3,0.8-0.3,1.2c0,0.6,0.1,1.1,0.4,1.4c0.3,0.4,0.6,0.7,0.9,0.9    c0.4,0.2,0.8,0.4,1.2,0.6c0.4,0.2,0.9,0.3,1.2,0.5c0.4,0.2,0.7,0.3,0.9,0.6c0.3,0.2,0.4,0.5,0.4,0.8c0,0.4-0.2,0.7-0.5,0.9    s-0.7,0.3-1.3,0.3c-0.3,0-0.6,0-0.9-0.1c-0.3-0.1-0.5-0.1-0.8-0.2c0,0-0.1,0-0.1,0v-1.5H76v2.8c0.1,0.1,0.3,0.2,0.5,0.3    C76.8,74.6,77,74.7,77.3,74.8z"/></g></g><text x="0" y="115" fill="#000000" font-size="5px" font-weight="bold" font-family="'Helvetica Neue', Helvetica, Arial-Unicode, Arial, Sans-serif">Created by Viktor Vorobyev</text><text x="0" y="120" fill="#000000" font-size="5px" font-weight="bold" font-family="'Helvetica Neue', Helvetica, Arial-Unicode, Arial, Sans-serif">from the Noun Project</text></svg>