<svg xmlns="http://www.w3.org/2000/svg" xmlns:xlink="http://www.w3.org/1999/xlink" viewBox="0 0 60 75" version="1.1" x="0px" y="0px"><title>3 -Coding- (Solid)</title><desc>Created with Sketch.</desc><g stroke="none" stroke-width="1" fill="none" fill-rule="evenodd"><g transform="translate(-360.000000, -340.000000)" fill="#000000"><g transform="translate(360.000000, 340.000000)"><path d="M21.707,19.707 L16.707,24.707 C16.512,24.902 16.256,25 16,25 C15.744,25 15.488,24.902 15.293,24.707 C14.902,24.316 14.902,23.684 15.293,23.293 L19.586,19 L15.293,14.707 C14.902,14.316 14.902,13.684 15.293,13.293 C15.684,12.902 16.316,12.902 16.707,13.293 L21.707,18.293 C22.098,18.684 22.098,19.316 21.707,19.707 L21.707,19.707 Z M14,20 L12,20 C11.448,20 11,19.552 11,19 C11,18.448 11.448,18 12,18 L14,18 C14.552,18 15,18.448 15,19 C15,19.552 14.552,20 14,20 L14,20 Z M8,20 L6,20 C5.448,20 5,19.552 5,19 C5,18.448 5.448,18 6,18 L8,18 C8.552,18 9,18.448 9,19 C9,19.552 8.552,20 8,20 L8,20 Z M0,10 L0,57 C0,58.654 1.346,60 3,60 L57,60 C58.654,60 60,58.654 60,57 L60,10 L0,10 Z"/><path d="M5,4 C5.552,4 6,4.448 6,5 C6,5.552 5.552,6 5,6 C4.448,6 4,5.552 4,5 C4,4.448 4.448,4 5,4 L5,4 Z M9,4 C9.552,4 10,4.448 10,5 C10,5.552 9.552,6 9,6 C8.448,6 8,5.552 8,5 C8,4.448 8.448,4 9,4 L9,4 Z M13,4 C13.552,4 14,4.448 14,5 C14,5.552 13.552,6 13,6 C12.448,6 12,5.552 12,5 C12,4.448 12.448,4 13,4 L13,4 Z M60,8 L60,3 C60,1.346 58.654,0 57,0 L3,0 C1.346,0 0,1.346 0,3 L0,8 L60,8 Z"/></g></g></g><text x="0" y="75" fill="#000000" font-size="5px" font-weight="bold" font-family="'Helvetica Neue', Helvetica, Arial-Unicode, Arial, Sans-serif">Created by Ben Davis</text><text x="0" y="80" fill="#000000" font-size="5px" font-weight="bold" font-family="'Helvetica Neue', Helvetica, Arial-Unicode, Arial, Sans-serif">from the Noun Project</text></svg>