<svg xmlns="http://www.w3.org/2000/svg" xmlns:xlink="http://www.w3.org/1999/xlink" version="1.1" x="0px" y="0px" viewBox="0 0 72 90" enable-background="new 0 0 72 72" xml:space="preserve"><g><path fill="#000000" d="M10.1,71H1.7C1.3,71,1,70.7,1,70.3V46.2c0-0.4,0.3-0.7,0.7-0.7h8.5c0.4,0,0.7,0.3,0.7,0.7v24.1   C10.8,70.7,10.5,71,10.1,71z"/><path fill="#000000" d="M28.9,71h-8.5c-0.4,0-0.7-0.3-0.7-0.7V29.8c0-0.4,0.3-0.7,0.7-0.7h8.5c0.4,0,0.7,0.3,0.7,0.7v40.5   C29.6,70.7,29.3,71,28.9,71z"/><path fill="#000000" d="M47.6,71h-8.5c-0.4,0-0.7-0.3-0.7-0.7V18.9c0-0.4,0.3-0.7,0.7-0.7h8.5c0.4,0,0.7,0.3,0.7,0.7v51.4   C48.3,70.7,48,71,47.6,71z"/><path fill="#000000" d="M70.8,9.4l-8.2-8.2c-0.3-0.3-0.7-0.3-1,0l-8.2,8.2c-0.4,0.4-0.1,1.2,0.5,1.2h2.6c0.4,0,0.7,0.3,0.7,0.7v59   c0,0.4,0.3,0.7,0.7,0.7h8.5c0.4,0,0.7-0.3,0.7-0.7v-59c0-0.4,0.3-0.7,0.7-0.7h2.6C70.9,10.6,71.2,9.9,70.8,9.4z"/></g><text x="0" y="87" fill="#000000" font-size="5px" font-weight="bold" font-family="'Helvetica Neue', Helvetica, Arial-Unicode, Arial, Sans-serif">Created by Creative Stall</text><text x="0" y="92" fill="#000000" font-size="5px" font-weight="bold" font-family="'Helvetica Neue', Helvetica, Arial-Unicode, Arial, Sans-serif">from the Noun Project</text></svg>