<svg xmlns="http://www.w3.org/2000/svg" viewBox="0 0 26.458333 33.0729175" x="0px" y="0px"><path d="m11.642183 273.05519c-.29244.00003-.529423.23724-.529167.52967v3.70305c.000031.29223.23693.52912.529167.52915h7.9375c.292439.00026.529652-.23672.529683-.52915v-3.70305c.000256-.29263-.237041-.52993-.529683-.52967zm-4.7635333 5.55664c-.292237.00003-.5291352.23692-.5291666.52915v3.70304c-.000256.29243.2367264.52964.5291666.52967h7.9374993c.29244-.00003.529423-.23724.529167-.52967v-3.70304c-.000031-.29223-.23693-.52912-.529167-.52915zm9.5255163 0c-.292439-.00026-.529652.23672-.529683.52915v3.70304c-.000256.29263.237041.52993.529683.52967h7.9375c.29244-.00003.529423-.23724.529167-.52967v-3.70304c-.000031-.29223-.23693-.52912-.529167-.52915zm-14.2869827 5.55663c-.2916362-.00026-.528517.23546-.5296834.52709v3.70511c.0000313.29243.2372446.52941.5296834.52915h7.9374997c.292237-.00003.529136-.23692.529167-.52915v-3.70511c-.0012-.29143-.237732-.52706-.529167-.52709zm9.5249997 0c-.291435.00003-.528001.23566-.529167.52709v3.70511c.000031.29223.23693.52912.529167.52915h7.9375c.292439.00026.529652-.23672.529683-.52915v-3.70511c-.0012-.29163-.238047-.52735-.529683-.52709zm-4.7635333 5.55456c-.2922409.00003-.5291408.23693-.5291666.52916v3.70511c.0000314.29223.2369296.52912.5291666.52915h7.9374993c.292237-.00003.529136-.23692.529167-.52915v-3.70511c-.000026-.29223-.236926-.52913-.529167-.52916zm9.5255163 0c-.292443-.00026-.529657.23672-.529683.52916v3.70511c.000031.29243.237244.52941.529683.52915h7.9375c.292237-.00003.529136-.23692.529167-.52915v-3.70511c-.000026-.29223-.236926-.52913-.529167-.52916z" transform="translate(0 -270.54165)"/><text x="0" y="41.458334" fill="#000000" font-size="5px" font-weight="bold" font-family="'Helvetica Neue', Helvetica, Arial-Unicode, Arial, Sans-serif">Created by Icons Bazaar</text><text x="0" y="46.458334" fill="#000000" font-size="5px" font-weight="bold" font-family="'Helvetica Neue', Helvetica, Arial-Unicode, Arial, Sans-serif">from the Noun Project</text></svg>